<?xml version="1.0" encoding="utf-8"?>
<!-- Generator: Adobe Illustrator 16.0.0, SVG Export Plug-In . SVG Version: 6.00 Build 0)  -->
<!DOCTYPE svg PUBLIC "-//W3C//DTD SVG 1.1//EN" "http://www.w3.org/Graphics/SVG/1.1/DTD/svg11.dtd">
<svg version="1.1" id="Layer_1" xmlns="http://www.w3.org/2000/svg" xmlns:xlink="http://www.w3.org/1999/xlink" x="0px" y="0px"
	 width="612px" height="792px" viewBox="0 0 612 792" enable-background="new 0 0 612 792" xml:space="preserve">
<path fill-rule="evenodd" clip-rule="evenodd" fill="#CEC3B2" d="M174.331,430.209c-10.318,7.736-27.804,1.814-39.036-13.193
	c-9.798-13.131-11.592-28.871-4.974-37.8c6.553,3.261,15.496,10.002,18.853,23.082c3.58,13.941,16.266,23.334,26.174,27.078
	C175.023,429.676,174.679,429.943,174.331,430.209L174.331,430.209z M137.335,373.754c10.447-4.258,25.412,1.897,35.398,15.264
	c10.045,13.456,11.667,29.679,4.451,38.446c-6.483-2.273-14.566-6.99-19.725-18.147
	C149.412,391.936,149.353,379.355,137.335,373.754L137.335,373.754z"/>
<path fill-rule="evenodd" clip-rule="evenodd" fill="#CEC3B2" d="M228.351,382.883c-0.378,4.594-0.043,9.358-1.3,19.564
	c-1.266,10.211-6.776,18.127-15.875,25.098c-9.108,6.975-21.03,8.777-26.696,8.236c-4.757-0.465-12.348-0.17-14.648-0.076
	c0.249-0.035,0.582-0.066,0.979-0.146c2.408-0.328,5.216-1.305,7.265-2.121c1.477-0.545,3.134-1.193,5.043-2.004
	c9.882-4.193,16.808-8.934,23.819-17.166c6.468-7.572,12.131-20.455,13.011-22.487c0.091-0.215,0.132-0.3,0.132-0.3
	s-0.06,0.123-0.132,0.3c-0.341,0.724-1.528,2.955-5.44,8.782c-5.071,7.564-9.839,12.879-18.786,20.612
	c-5.02,4.347-10.928,7.042-15.137,8.573l-0.009-0.035l-4.231,1.174l-0.034-0.311c0.496-0.387,1.193-0.934,2.166-1.76
	c3.21-2.676,4.342-6.586,5.999-12.699c1.673-6.121,4.336-11.52,10.709-17.338c6.377-5.822,17.052-10.522,23.758-14.85
	c6.726-4.328,11.525-12.431,11.525-12.431S228.735,378.298,228.351,382.883L228.351,382.883L228.351,382.883z"/>
<g>
	<g>
		<path fill="#CEC3B2" d="M302.52,299.495c-6.666,6.666-23.119,37.969-31.238,56.085c-1.158,2.754-11.155,25.218,0.145,20.725
			c2.467-1.015,5.218-3.043,7.83-5.508c5.067-4.782,8.838-10.145,9.562-11.159c1.014-1.449,2.322-0.435,1.158,1.16
			c-2.172,2.897-9.852,14.058-18.115,17.68c-4.923,2.175-11.734,2.03-13.043-4.782c-1.158-5.942,2.322-14.928,4.494-19.565
			c7.824-16.521,22.899-44.201,28.986-52.462c-4.639,0.145-15.22,5.797-22.755,13.478c-6.087,6.232-14.056,15.507-23.044,25.216
			c4.35,0.145,8.844,0.291,13.332,0.291c3.046,0,7.106-0.581,10.437-2.174c0,0-2.317,5.942-8.259,6.376
			c-6.666,0.436-13.478,0.436-20.001,0.145c-17.969,18.55-39.131,37.101-57.536,37.101c-5.942,0-10.286-3.478-9.562-10.434
			c0.146-2.464,1.448-5.363,2.752-8.117c1.595-3.188,2.464-2.028,1.885-0.869c-4.491,9.13-0.727,13.332,6.231,13.332
			c14.059,0,33.912-15.507,50.87-31.303c-7.538-0.29-14.349-0.869-19.277-0.869c-4.347,0-11.447,0.434-14.638,3.623
			c-1.737,1.739-3.33,6.087-2.316,9.13c-0.725-0.29-3.48-0.145-4.061-2.32c-1.303-5.796,5.653-7.97,10.292-9.999
			c6.376-2.754,13.188-4.637,20.143-4.637c3.626,0,8.841,0.145,14.783,0.434c9.13-8.841,17.1-17.246,22.028-22.462
			c6.811-7.102,14.49-12.463,22.465-14.638h-7.975c-10.286,0-24.056,0.87-30.866,6.666c-4.781,4.203-5.652,10.58-2.754,12.465
			c0.724,0.435-1.593,1.739-2.319,1.303c-1.885-1.303-3.768-6.521-3.333-9.13c2.175-15.071,29.71-14.781,41.305-14.781l15.938,0.145
			c0.146,0,0.44,0.146,0,0"/>
		<path fill="#CEC3B2" d="M336.928,361.812c-2.895,3.914-9.271,11.45-13.186,14.493c-1.883,1.449-5.363,3.334-8.404,3.334
			c-9.278,0-2.172-14.204-0.145-18.262c3.475-6.666,6.666-13.333,7.824-15.941c2.9-6.232-9.996,4.927-11.596,6.666
			c-7.245,7.536-12.462,16.956-16.083,26.666c-3.771,0.29-7.83,3.623-6.376,0.582c0.868-1.741,1.737-3.915,2.751-6.379
			c3.915-9.42,9.856-24.927,11.015-27.245c-4.204,4.493-11.305,13.043-13.911,16.522c-1.309,1.884-1.309-1.16-0.289-2.319
			c5.508-6.811,14.2-18.406,15.794-20.724c2.032-0.291,7.39-1.16,8.988-2.464c1.158-1.16,1.738,0.145,0.869,1.16
			c-1.889,2.173-7.975,13.768-11.884,21.013c2.316-3.043,5.074-5.94,7.679-8.694c3.336-3.479,12.029-10.869,16.957-11.595
			c6.232-1.014,5.943,2.464,3.186,6.812c-2.895,4.347-12.463,22.028-12.463,26.666c0,1.16,0.869,2.028,2.033,2.028
			c4.777,0,11.738-8.26,18.84-16.956C339.541,358.623,337.947,360.507,336.928,361.812z"/>
	</g>
</g>
<g>
	<text transform="matrix(1 0 0 1 230.2456 435.8691)" fill="#CEC3B2" font-family="'Allura-Regular'" font-size="27.458">Tea &amp; Coffee</text>
</g>
</svg>
